<svg xmlns="http://www.w3.org/2000/svg" viewBox="0 0 24 24" fill="none" stroke="currentColor" stroke-width="2" stroke-linecap="round" stroke-linejoin="round">
  <defs>
    <linearGradient id="planeGrad" x1="0%" y1="0%" x2="100%" y2="100%">
      <stop offset="0%" stop-color="#4f46e5" />
      <stop offset="100%" stop-color="#0ea5e9" />
    </linearGradient>
  </defs>
  <path d="M17.8 19.2L16 11l3.5-3.5C21 6 21.5 4 21 3.5s-2.5 0-4 1.5L13.5 8.5l-8.2-1.8c-.9-.2-1.8.1-2.4.7l-.3.3c-.4.4-.5 1.1-.2 1.6l4.2 3.7-2.3 2.3-3.1-.7c-.5-.1-1.1.1-1.4.5l-.2.2c-.3.3-.3.9 0 1.2l3.4 3.4c.3.3.9.3 1.2 0l.2-.2c.4-.3.6-.9.5-1.4l-.7-3.1 2.3-2.3 3.7 4.2c.5.4 1.2.3 1.6-.2l.3-.3c.6-.6.9-1.5.7-2.4z" fill="url(#planeGrad)" stroke="none" />
</svg>
